<?xml version="1.0" encoding="UTF-8"?>
<svg xmlns="http://www.w3.org/2000/svg" width="200" height="125" viewBox="0 0 200 125" fill="none">
  <path d="M125.475 122.554L124.987 121.579C125.028 121.557 129.225 119.444 137.419 114.402C145.503 109.425 149.955 99.2641 149.955 85.7871C149.955 56.9816 129.565 21.7724 104.503 7.30434C92.4642 0.350721 81.1745 -0.809127 72.7137 4.03172C64.5474 8.70377 61.8046 10.3973 61.7785 10.4136L61.2051 9.4879C61.2318 9.47156 63.9849 7.77263 72.1724 3.08425C80.985 -1.95263 92.6597 -0.792775 105.047 6.36231C130.41 21.0047 151.044 56.6331 151.044 85.7871C151.044 99.6562 146.408 110.144 137.99 115.328C129.748 120.403 125.516 122.532 125.475 122.554Z" fill="#141414"></path>
  <path d="M73.7855 7.34404C69.5208 7.34404 65.5888 8.33507 62.131 10.3335C53.7208 15.1907 49.0891 25.455 49.0891 39.237C49.0891 68.0316 69.486 103.23 94.5565 117.693C106.642 124.668 117.964 125.811 126.438 120.922C134.848 116.064 139.481 105.8 139.481 92.018C139.481 63.218 119.084 28.0198 94.0126 13.5571C86.8586 9.42959 79.9719 7.34404 73.7855 7.34404ZM114.787 125C108.408 125 101.337 122.866 94.0126 118.64C68.6408 103.998 48 68.3801 48 39.237C48 25.0466 52.8251 14.4501 61.5865 9.39146C70.4106 4.29469 82.119 5.43822 94.5571 12.6151C119.928 27.252 140.57 62.8695 140.57 92.018C140.57 106.203 135.744 116.805 126.983 121.864C123.355 123.96 119.239 125 114.787 125Z" fill="#141414"></path>
  <path d="M76.0408 14.9894C72.3533 14.9894 68.9538 15.8498 65.9638 17.5759C58.6677 21.7851 54.6496 30.699 54.6496 42.6786C54.6496 67.7214 72.3593 98.3293 94.1278 110.908C104.6 116.958 114.408 117.959 121.747 113.723C129.043 109.514 133.062 100.595 133.062 88.6149C133.062 63.5776 115.351 32.9697 93.5828 20.3912C87.3773 16.8027 81.4044 14.9894 76.0408 14.9894ZM111.673 117.393C106.117 117.393 99.9586 115.531 93.5828 111.85C71.5142 99.0971 53.5605 68.0645 53.5605 42.6786C53.5605 30.2961 57.7719 21.0446 65.4198 16.6285C73.1096 12.1906 83.3048 13.1925 94.1278 19.4491C116.196 32.1965 134.151 63.2291 134.151 88.6149C134.151 101.003 129.939 110.254 122.291 114.665C119.131 116.489 115.548 117.393 111.673 117.393Z" fill="#141414"></path>
  <path d="M114.999 115.405C109.456 115.405 103.31 113.554 96.9985 109.911C74.9626 97.1852 57.0352 66.2289 57.0352 40.9029C57.0352 29.5005 60.6976 20.6519 67.348 15.9854L67.6611 16.4265C61.1599 20.9896 57.5797 29.6802 57.5797 40.9029C57.5797 66.0546 75.3852 96.8041 97.2708 109.437C107.146 115.138 116.587 116.391 123.854 112.966L124.087 113.461C121.329 114.757 118.268 115.405 114.999 115.405Z" fill="#141414"></path>
  <path d="M66.2936 48.7148C72.438 45.5293 76.4817 43.2532 76.4817 39.3381C76.4817 36.6644 75.2075 34.323 72.9471 33.0161C71.2286 32.0251 69.827 32.5315 68.6176 33.3319L66.0703 28.9376C68.2354 27.5164 70.3367 27.2659 73.5527 29.1227C78.0096 31.6929 80.9708 36.659 80.9708 41.636C80.9708 46.2481 77.2772 48.8727 73.0746 51.4973C74.2524 52.031 75.813 52.7879 76.9271 53.4304L82.0849 56.409V60.9449L66.2936 51.824V48.7148Z" fill="#117BDF"></path>
  <path d="M91.7073 55.822V50.5455C91.7073 48.9718 91.8032 46.5323 91.8669 44.9968L91.7395 44.9205C91.1655 46.0205 90.5279 47.006 89.8587 48.0842L86.1924 52.6365L91.7073 55.822ZM91.7073 60.0421L81.3613 54.0686V50.5455L90.3188 39.2683L96.0636 42.5845V58.3976L98.7857 59.9658V64.0334L96.0636 62.4597V69.0431L91.7073 66.5273V60.0421Z" fill="#117BDF"></path>
  <path d="M85.5347 85.3645L89.1009 87.4229L108.31 65.9086L104.775 63.8666L85.5347 85.3645ZM89.1564 88.0436C89.1101 88.0436 89.0633 88.0327 89.0203 88.0055L84.9722 85.6694C84.9009 85.6313 84.8525 85.5551 84.8394 85.4789C84.8263 85.3972 84.8508 85.3155 84.9053 85.2501L104.516 63.3384C104.603 63.2404 104.745 63.2186 104.856 63.2839L108.872 65.6036C108.943 65.6417 108.992 65.7125 109.005 65.7942C109.018 65.8759 108.994 65.9576 108.939 66.0175L89.3595 87.951C89.3067 88.0109 89.2321 88.0436 89.1564 88.0436Z" fill="#141414"></path>
  <path d="M117.764 81.9447L107.076 75.7752V71.2393L122.867 80.3546V83.6763C117.476 88.1251 116.609 92.9768 116.224 103.121L111.441 100.355C111.858 91.414 113.334 86.4752 117.764 81.9447Z" fill="#117BDF"></path>
</svg>
