<?xml version="1.0" encoding="UTF-8"?>
<svg xmlns="http://www.w3.org/2000/svg" width="200" height="125" viewBox="0 0 200 125" fill="none">
  <path d="M146.091 109.209C145.812 109.209 145.533 109.136 145.281 108.99L133.318 102.096L133.576 101.649L145.539 108.544C145.884 108.742 146.297 108.743 146.643 108.543C146.983 108.344 147.189 107.987 147.189 107.588V37.8361C147.189 36.8343 146.653 35.9011 145.786 35.4007L86.9412 1.48545C86.5956 1.28632 86.1834 1.28633 85.8383 1.48597C85.4932 1.68458 85.2874 2.04156 85.2874 2.44085V32.388H84.7715V2.44085C84.7715 1.85534 85.0738 1.33172 85.5804 1.03871C86.0875 0.746212 86.692 0.746212 87.1986 1.03871L146.044 34.9534C147.071 35.5467 147.705 36.6506 147.705 37.8361V107.588C147.705 108.173 147.406 108.697 146.901 108.99C146.643 109.136 146.369 109.209 146.091 109.209Z" fill="#141414"></path>
  <path d="M139.793 98.5329C139.752 98.5329 139.705 98.5215 139.664 98.4983L133.324 94.8434L133.582 94.3967L139.535 97.8287V38.5282L90.5295 10.2891V35.5006H90.0137V9.84287C90.0137 9.75105 90.0627 9.66541 90.1426 9.6195C90.2221 9.5741 90.3206 9.5741 90.4 9.6195L139.922 38.1563C140.004 38.2022 140.051 38.2873 140.051 38.3796V98.275C140.051 98.3673 140.004 98.4524 139.922 98.4983C139.886 98.5215 139.839 98.5329 139.793 98.5329Z" fill="#117BDF"></path>
  <path d="M133.676 43.4326L96.3232 22.3463L96.5883 21.875L133.947 42.9608L133.676 43.4326Z" fill="#141414"></path>
  <path d="M133.676 51.5576L96.3232 30.4713L96.5883 30L133.947 51.0858L133.676 51.5576Z" fill="#141414"></path>
  <path d="M133.676 59.6827L133.947 59.2109L120.996 51.9011L120.726 52.3718L133.676 59.6827Z" fill="#141414"></path>
  <path d="M146.196 109.04L145.969 108.576C147.156 108.001 147.883 107.606 147.883 106.765V36.9696C147.883 36.7926 147.868 36.6214 147.837 36.446C147.703 35.747 147.316 35.1284 146.743 34.7044C146.661 34.642 146.568 34.5837 146.475 34.53L87.6015 0.594703C87.047 0.276412 85.762 0.971805 85.0826 1.48458L84.7715 1.07291C84.9794 0.916605 86.8308 -0.442194 87.8584 0.147443L146.738 34.0848C146.846 34.1493 146.955 34.2179 147.053 34.2907C147.728 34.7916 148.188 35.5231 148.342 36.3495C148.384 36.5569 148.399 36.7596 148.399 36.9696V106.765C148.399 107.972 147.331 108.49 146.196 109.04Z" fill="#141414"></path>
  <path d="M118.306 118.479C116.923 118.479 115.54 118.175 114.487 117.567L104.433 111.763L104.948 110.869L115.003 116.674C116.794 117.709 119.823 117.709 121.613 116.674L128.892 112.408C130.532 111.46 131.435 110.227 131.435 108.934V67.9993H132.467V108.934C132.467 110.611 131.384 112.162 129.413 113.3L122.134 117.566C121.077 118.175 119.694 118.479 118.306 118.479Z" fill="#141414"></path>
  <path d="M53.0317 49.8933H52V82.9088H53.0317V49.8933Z" fill="#141414"></path>
  <path d="M120.024 77.7485H119.508V115.923H120.024V77.7485Z" fill="#141414"></path>
  <path d="M115.435 79.3052H114.919V113.868H115.435V79.3052Z" fill="#141414"></path>
  <path d="M60.288 56.7936C57.6937 56.7936 55.3486 56.1911 53.7979 54.7874C52.3823 53.5065 51.0746 51.0185 52.8817 46.4391C54.8167 41.5368 59.9305 37.2036 66.9117 34.551C73.8971 31.8963 81.0914 31.5378 85.2416 33.6358C85.2503 33.6404 85.2596 33.6451 85.2679 33.6503L99.8205 41.9562L99.3093 42.8523L87.3257 36.0124C87.2864 36.0011 87.2483 35.9851 87.2116 35.9634L84.7546 34.5448C80.9371 32.6128 73.9043 32.9977 67.2785 35.5151C60.5676 38.065 55.6699 42.1848 53.8412 46.8178C52.5825 50.0079 52.8069 52.499 54.4901 54.0224C57.2918 56.5574 64.1302 56.2721 69.734 53.3863C72.1849 52.1245 74.6967 51.359 77.4138 51.0463L78.2583 50.9906C78.3532 50.9855 78.4476 51.004 78.5312 51.0484C78.5456 51.0561 80.0478 51.8413 81.7625 52.8313L84.5214 54.4237L84.0055 55.3177L81.2467 53.7247C79.8383 52.9117 78.5755 52.2385 78.1804 52.0296L77.5056 52.0734C74.9407 52.3695 72.5445 53.0995 70.2061 54.3035C67.2424 55.8295 63.5668 56.7931 60.288 56.7936Z" fill="#141414"></path>
  <path d="M118.425 76.7851C117.014 76.7851 115.65 76.4823 114.8 75.8014C114.239 75.3515 113.023 74.228 111.616 72.9264C109.292 70.7784 106.109 67.8353 105.088 67.2462L105.604 66.3527C106.724 66.9996 109.695 69.7461 112.316 72.1691C113.709 73.4567 114.913 74.569 115.445 74.9961C116.736 76.0309 120.163 76.0077 121.994 74.9517L130.212 70.2063C131.352 69.5491 131.878 68.7428 131.822 67.7409C131.796 67.1864 131.61 66.6813 131.285 66.2774C127.416 61.4587 122.727 55.9874 121.159 55.0826L120.529 54.7225L121.04 53.8259L121.669 54.187C123.743 55.3838 129.65 62.5895 132.09 65.6316C132.549 66.2062 132.812 66.9171 132.853 67.6878C132.905 68.6525 132.58 70.0309 130.728 71.1003L122.51 75.8452C121.473 76.4416 119.926 76.7851 118.425 76.7851Z" fill="#141414"></path>
  <path d="M81.0486 56.7997C80.8763 56.7997 80.719 56.8389 80.5823 56.9173C80.2351 57.118 80.0432 57.5632 80.0432 58.1714C80.0427 59.5415 81.0074 61.2129 82.1918 61.8975C82.7175 62.2008 83.1983 62.2575 83.5454 62.0569C83.8926 61.8562 84.084 61.4105 84.084 60.8033C84.0845 59.4332 83.1204 57.7612 81.9344 57.0767C81.6161 56.8925 81.3138 56.7997 81.0486 56.7997ZM83.0812 62.6909C82.7237 62.6909 82.3337 62.5748 81.9339 62.3442C80.6065 61.5776 79.5268 59.7061 79.5273 58.1714C79.5273 57.3718 79.8105 56.7677 80.3244 56.4711C80.8382 56.175 81.5016 56.2312 82.1923 56.6299C83.5207 57.397 84.6004 59.2691 84.5999 60.8033C84.5999 61.6034 84.3172 62.207 83.8028 62.5036C83.5862 62.629 83.3422 62.6909 83.0812 62.6909Z" fill="#141414"></path>
  <path d="M78.0356 117.191C76.2311 117.191 74.2357 116.586 72.1805 115.389C65.027 111.223 59.208 101.05 59.209 92.7135C59.21 87.2252 61.7796 83.5945 65.9163 83.2375L65.9602 83.7514C62.1144 84.0836 59.7259 87.5172 59.7249 92.7135C59.7238 100.887 65.4273 110.859 72.44 114.943C75.6899 116.835 78.7552 117.19 81.0725 115.943C83.316 114.736 84.6604 112.125 84.859 108.591L85.3738 108.62C85.1649 112.34 83.7241 115.102 81.317 116.397C80.3312 116.928 79.2247 117.191 78.0356 117.191Z" fill="#141414"></path>
  <path d="M84.1948 123.814L83.6743 122.923L105.822 109.991C105.855 109.947 105.896 109.909 105.945 109.878C109.056 107.943 110.77 103.986 110.77 98.7347C110.772 87.364 102.771 73.4918 92.9342 67.8105C87.3617 64.593 82.2867 64.5905 79.0104 67.8033C78.9784 67.8342 78.9433 67.8611 78.9051 67.8827L58.4092 79.5945L57.8975 78.6989L78.3361 67.0197C81.9178 63.5567 87.5614 63.5164 93.45 66.9175C103.571 72.7623 111.804 87.0353 111.802 98.7347C111.802 104.273 109.97 108.499 106.639 110.659C106.602 110.713 106.553 110.759 106.495 110.793L84.1948 123.814Z" fill="#141414"></path>
  <path d="M63.195 78.2083C61.5622 78.2083 60.059 78.5864 58.7379 79.3489C55.4817 81.2287 53.6875 85.2375 53.687 90.6371C53.6855 102.007 61.6866 115.879 71.5226 121.559C76.1866 124.253 80.5462 124.703 83.7972 122.827C87.0539 120.947 88.8475 116.939 88.8481 111.54C88.8496 100.169 80.8485 86.2971 71.0119 80.6158C68.2433 79.0167 65.5808 78.2083 63.195 78.2083ZM79.3437 125C76.7752 125 73.9374 124.145 71.0068 122.453C60.8859 116.608 52.6537 102.335 52.6553 90.6371C52.6558 84.8532 54.6331 80.5271 58.222 78.4554C61.8058 76.3863 66.5316 76.8366 71.5278 79.7224C81.6486 85.5677 89.8813 99.8407 89.8798 111.54C89.8788 117.323 87.902 121.649 84.3131 123.72C82.8315 124.575 81.1539 125 79.3437 125Z" fill="#141414"></path>
  <path d="M65.0354 83.2864C63.6818 83.2864 62.4375 83.6067 61.3722 84.2526C58.8408 85.7888 57.5104 88.9444 57.6265 93.1389C57.8396 100.854 63.5425 112.608 71.3863 117.139C75.0835 119.273 78.5197 119.642 81.0619 118.174C83.5752 116.724 84.9598 113.611 84.9603 109.409C84.9618 100.262 78.6451 89.3071 70.8797 84.9877C68.8472 83.8574 66.8435 83.2864 65.0354 83.2864ZM77.6004 120.091C75.5312 120.091 73.2403 119.4 70.8704 118.032C62.6103 113.261 56.8197 101.323 56.5953 93.1673C56.4684 88.5869 57.9747 85.1074 60.8373 83.371C63.6503 81.6634 67.4935 81.924 71.3811 84.0865C79.439 88.5678 85.9936 99.9277 85.992 109.409C85.9915 113.995 84.4238 117.426 81.5772 119.068C80.3933 119.752 79.051 120.091 77.6004 120.091Z" fill="#141414"></path>
  <path fill-rule="evenodd" clip-rule="evenodd" d="M70.8334 97.2464C69.4164 96.4282 68.2675 94.4385 68.2675 92.8016C68.2675 91.1653 69.4164 90.5019 70.8334 91.3206C72.2505 92.1388 73.3999 94.1285 73.3999 95.7648C73.3999 97.4016 72.2505 98.0645 70.8334 97.2464ZM72.4125 88.0407C66.5698 84.6664 61.8321 87.4062 61.8311 94.1599C61.8305 100.914 66.5667 109.123 72.4094 112.499C78.2516 115.873 82.9883 113.133 82.9899 106.379C82.9909 99.6261 78.2542 91.415 72.4125 88.0407Z" fill="#117BDF"></path>
  <path d="M85.0614 49.2461C84.1674 49.2461 83.2729 49.1171 82.4042 48.8592C80.2236 48.2118 78.9035 46.9747 78.8721 45.5509V42.1921H79.3879V45.5061C79.4137 46.7282 80.5966 47.7841 82.5512 48.3645C84.1906 48.8515 85.924 48.852 87.566 48.3666C89.5263 47.7867 90.7107 46.7302 90.7339 45.5401C90.7365 45.4024 90.737 43.083 90.737 42.1921H91.2529C91.2529 44.3129 91.2529 45.1878 91.2003 45.5494L91.2498 45.5504C91.2224 46.9768 89.8992 48.2144 87.712 48.8613C86.8443 49.1182 85.9529 49.2461 85.0614 49.2461Z" fill="#117BDF"></path>
  <path d="M85.7384 39.0139C84.2604 39.0139 82.783 39.3384 81.6579 39.9879C80.6163 40.5894 80.0432 41.373 80.0432 42.1953C80.0432 43.0166 80.6163 43.8007 81.6579 44.4022C83.9076 45.7011 87.5692 45.7017 89.8194 44.4022C90.861 43.8012 91.4341 43.0176 91.4341 42.1953C91.4341 41.3735 90.8605 40.5894 89.8189 39.9879C88.6943 39.3389 87.2158 39.0139 85.7384 39.0139ZM85.7389 45.8853C84.1676 45.8853 82.5963 45.5397 81.4 44.8489C80.1923 44.1515 79.5273 43.209 79.5273 42.1953C79.5273 41.1806 80.1923 40.2386 81.4 39.5412C83.7926 38.1607 87.6848 38.1602 90.0769 39.5412C91.285 40.2386 91.95 41.1811 91.95 42.1953C91.95 43.2095 91.285 44.152 90.0774 44.8494C88.8816 45.5397 87.3103 45.8853 85.7389 45.8853Z" fill="#117BDF"></path>
  <path d="M61.7864 45.2469C60.3579 45.2469 58.961 46.2312 58.538 47.608C58.3156 48.3313 58.3966 49.0529 58.765 49.6416C59.1333 50.2291 59.7482 50.616 60.4957 50.7316C62.0727 50.9761 63.7374 49.9315 64.2063 48.4061C64.4292 47.6828 64.3487 46.9611 63.9799 46.3725C63.6115 45.7849 62.9966 45.398 62.2486 45.2825C62.0954 45.2587 61.9406 45.2469 61.7864 45.2469ZM60.9512 51.282C60.7727 51.282 60.5942 51.2691 60.4173 51.2413C59.5192 51.1035 58.7773 50.632 58.328 49.915C57.8787 49.1984 57.7776 48.3251 58.0448 47.4563C58.586 45.6957 60.5091 44.4911 62.3275 44.7728C63.2257 44.9111 63.968 45.382 64.4173 46.0991C64.8666 46.8156 64.9667 47.6885 64.6995 48.5577C64.2115 50.1466 62.5989 51.282 60.9512 51.282Z" fill="#141414"></path>
  <path d="M71.1814 44.5101C70.4927 44.5101 69.8185 44.9847 69.6147 45.6486C69.51 45.9885 69.5471 46.3275 69.7189 46.6014C69.8907 46.8758 70.179 47.0569 70.5314 47.1111C71.2886 47.2251 72.0944 46.7257 72.3209 45.9901C72.4256 45.6491 72.3885 45.3107 72.2167 45.0368C72.0449 44.7618 71.756 44.5812 71.4042 44.5271C71.3299 44.5157 71.2556 44.5101 71.1814 44.5101ZM70.7475 47.6434C70.6495 47.6434 70.5505 47.6362 70.453 47.6213C69.9505 47.5439 69.5342 47.2787 69.2814 46.8758C69.0292 46.4724 68.9724 45.9829 69.1215 45.4969C69.4197 44.5266 70.4782 43.8626 71.4826 44.0169C71.9851 44.0948 72.4009 44.3594 72.6536 44.7628C72.9064 45.1657 72.9636 45.6553 72.814 46.1412C72.5443 47.0172 71.6559 47.6434 70.7475 47.6434Z" fill="#141414"></path>
  <path d="M67.2492 39.0211C66.561 39.0211 65.8873 39.4957 65.683 40.1596C65.5783 40.5001 65.6154 40.8385 65.7872 41.1124C65.959 41.3873 66.2479 41.5679 66.5997 41.6221C67.3601 41.7386 68.1638 41.2367 68.3893 40.5006C68.494 40.1601 68.4569 39.8212 68.2851 39.5472C68.1133 39.2728 67.8244 39.0922 67.4726 39.0381C67.3983 39.0267 67.324 39.0211 67.2492 39.0211ZM66.8154 42.1544C66.7174 42.1544 66.6193 42.1472 66.5213 42.1317C66.0189 42.0544 65.6031 41.7897 65.3503 41.3863C65.0975 40.9834 65.0408 40.4939 65.1899 40.0079C65.4886 39.037 66.5507 38.3721 67.551 38.5284C68.0539 38.6053 68.4692 38.8704 68.7225 39.2733C68.9748 39.6767 69.0315 40.1663 68.8824 40.6522C68.6137 41.5282 67.7243 42.1544 66.8154 42.1544Z" fill="#141414"></path>
  <path d="M95.3698 65.0188C95.2078 65.0188 95.0113 64.9708 94.7771 64.8361L95.035 64.3894C95.2346 64.5039 95.3853 64.5328 95.4822 64.4735C95.7247 64.326 95.8062 63.6708 95.7871 63.2519C95.7866 62.0458 94.9143 60.5323 93.881 59.9354L88.2498 56.7979C87.7881 56.5317 87.3692 56.4827 87.0669 56.6565C86.7641 56.8314 86.5969 57.2194 86.5969 57.7497C86.6067 58.3883 86.7888 59.5201 87.2325 59.8224L86.942 60.249C86.1326 59.6971 86.0841 57.9509 86.0811 57.7533C86.0816 57.0274 86.3395 56.4811 86.809 56.2103C87.2774 55.9395 87.8794 55.989 88.5041 56.3491L94.1353 59.4866C95.3316 60.1784 96.3025 61.8611 96.3025 63.24C96.3092 63.3618 96.3484 64.5493 95.751 64.914C95.6582 64.9708 95.5318 65.0188 95.3698 65.0188Z" fill="#117BDF"></path>
  <path d="M99.306 66.4264C98.751 66.4264 97.4076 66.364 96.5931 65.8414L86.4026 59.8568C85.2853 59.2012 84.6528 57.945 84.79 56.6569C84.9242 55.393 85.5272 54.2395 86.4872 53.409C89.2275 51.0386 96.3021 45.168 102.796 41.868C103.691 41.413 104.874 41.6369 105.58 42.0934L116.833 49.5255L116.549 49.9563L105.298 42.5247C104.732 42.16 103.744 41.9655 103.03 42.3282C96.5869 45.6024 89.5504 51.4415 86.8246 53.7995C85.9641 54.5439 85.4235 55.5782 85.3028 56.7116C85.1872 57.7985 85.7212 58.8581 86.6636 59.4121L96.8634 65.4024C97.467 65.7893 98.5369 65.9332 99.3602 65.9141L100.174 65.7661L100.265 66.2732L99.4066 66.4259C99.3772 66.4259 99.3432 66.4264 99.306 66.4264Z" fill="#141414"></path>
  <path d="M115.935 49.8364C115.837 49.8364 115.742 49.8586 115.649 49.9034C109.287 52.9894 101.847 59.2613 98.9441 61.8143C98.1785 62.4875 97.7395 63.461 97.7395 64.4845C97.7395 64.8724 97.8912 65.2371 98.1666 65.5105C98.4421 65.7844 98.7944 65.9165 99.1963 65.9309L102.344 65.3444L118.852 53.6275C118.409 52.571 117.264 50.2986 116.225 49.8947C116.123 49.856 116.028 49.8364 115.935 49.8364ZM99.2123 66.4427C98.6541 66.4427 98.1703 66.241 97.8035 65.8763C97.4295 65.5059 97.2236 65.0112 97.2236 64.4845C97.2236 63.3124 97.7261 62.1981 98.6031 61.4269C101.522 58.8599 109.006 52.5524 115.424 49.4392C115.735 49.2891 116.067 49.2803 116.411 49.4144C117.955 50.0123 119.353 53.4758 119.41 53.6234C119.456 53.7338 119.415 53.8602 119.322 53.9293L102.596 65.7978C102.565 65.8195 102.531 65.834 102.493 65.8412L99.2448 66.4427H99.2123Z" fill="#141414"></path>
</svg>
