<?xml version="1.0" encoding="UTF-8"?>
<svg xmlns="http://www.w3.org/2000/svg" width="200" height="125" viewBox="0 0 200 125" fill="none">
  <path d="M144.288 125L144.017 124.53L147.821 122.35V30.2162L130.93 20.5365L131.195 20.0669L148.227 29.8245C148.313 29.8726 148.362 29.9625 148.362 30.0593V122.507C148.362 122.604 148.313 122.693 148.227 122.742L144.288 125Z" fill="#141414"></path>
  <path d="M101.375 3.73341L95.8728 0.581897L92.0693 2.76335L91.7988 2.29427L95.7376 0.0354443C95.8241 -0.011626 95.9269 -0.0121797 96.0081 0.0359727L101.646 3.26433L101.375 3.73341Z" fill="#141414"></path>
  <path d="M92.0059 12.7457H91.4648V2.5283C91.4648 2.43146 91.5189 2.34217 91.6001 2.29348C91.6867 2.24587 91.7895 2.24533 91.8706 2.29348L98.0492 5.83132L97.7787 6.30149L92.0059 2.99467V12.7457Z" fill="#141414"></path>
  <path d="M143.675 124.978C143.632 124.978 143.583 124.966 143.545 124.942L91.6055 95.1833C91.519 95.1357 91.4648 95.0459 91.4648 94.9491V73.3417H92.0059V94.7922L143.404 124.241V32.5378L131.144 25.5108L131.41 25.0417L143.81 32.1466C143.897 32.1948 143.945 32.2846 143.945 32.3809V124.708C143.945 124.804 143.897 124.893 143.816 124.941C143.772 124.966 143.724 124.978 143.675 124.978Z" fill="#141414"></path>
  <path d="M144.244 32.5355L143.974 32.0665L147.918 29.8076L148.188 30.2773L144.244 32.5355Z" fill="#141414"></path>
  <path d="M136.383 47.8777L130.93 44.7418L131.2 44.2727L136.654 47.408L136.383 47.8777Z" fill="#141414"></path>
  <path d="M116.496 36.5425L97.4844 25.6125L98.2905 24.2058L117.303 35.1359L116.496 36.5425Z" fill="#117BDF"></path>
  <path d="M136.188 59.7657L127.586 54.9029L127.851 54.4316L136.459 59.295L136.188 59.7657Z" fill="#141414"></path>
  <path d="M113.624 47.0319L97.4844 37.9095L98.2797 36.4968L114.424 45.6187L113.624 47.0319Z" fill="#117BDF"></path>
  <path d="M135.792 72.094L122.569 64.3897L122.84 63.9216L136.063 71.6265L135.792 72.094Z" fill="#141414"></path>
  <path d="M108.668 56.2465L97.4844 49.7303L98.3013 48.3279L109.485 54.8441L108.668 56.2465Z" fill="#117BDF"></path>
  <path d="M136.338 99.079L106.516 81.907L106.786 81.4385L136.608 98.6104L136.338 99.079Z" fill="#141414"></path>
  <path d="M136.176 106.048L98.8232 84.9615L99.0883 84.4902L136.447 105.576L136.176 106.048Z" fill="#141414"></path>
  <path d="M58.6279 101.268C58.3303 101.268 58.0058 101.229 57.6703 101.151C55.3439 100.609 52.8821 98.3079 52.1896 96.022C51.746 94.5595 52.0922 93.359 53.1093 92.8098L53.3636 93.2859C52.5899 93.7036 52.3465 94.6678 52.709 95.8651C53.3528 97.9859 55.6306 100.121 57.7893 100.624C59.0716 100.922 60.0346 100.574 60.3647 99.6935L60.8732 99.8844C60.5378 100.776 59.71 101.268 58.6279 101.268Z" fill="#141414"></path>
  <path d="M61.5 100.19C61.1159 100.19 60.7047 100.14 60.2773 100.041C57.2907 99.3461 54.1419 96.3948 53.2492 93.4635C52.8488 92.139 52.9408 90.9655 53.5089 90.1588L75.291 66.8899L75.686 67.26L53.9255 90.4996C53.4818 91.1381 53.4169 92.1449 53.7686 93.306C54.6072 96.0734 57.5829 98.8576 60.3963 99.5139C61.5595 99.7844 62.555 99.6475 63.1989 99.1276C63.3504 98.9928 63.4532 98.883 63.5451 98.7618L84.9323 75.916L85.3272 76.2855L63.9563 99.1076C63.8589 99.2428 63.7236 99.3884 63.5776 99.5144C63.5613 99.5247 63.5505 99.5344 63.5343 99.5447C63.0095 99.9732 62.3116 100.19 61.5 100.19Z" fill="#117BDF"></path>
  <path d="M82.9196 77.3037C82.5301 77.3037 82.1134 77.2529 81.6752 77.1512C78.6887 76.4559 75.5399 73.5057 74.6526 70.5738C74.2035 69.0973 74.3767 67.8334 75.1449 67.0154C75.9078 66.1973 77.1576 65.9398 78.6617 66.2899C79.2893 66.4365 79.9385 66.6843 80.5877 67.0262L80.3334 67.5045C79.7275 67.1842 79.1215 66.9526 78.5372 66.8163C77.2333 66.5117 76.1675 66.714 75.5399 67.3849C74.9123 68.0558 74.777 69.133 75.1665 70.4169C76.0051 73.1832 78.9808 75.9679 81.7996 76.6242C83.1035 76.9283 84.1694 76.727 84.797 76.0561C85.4246 75.3847 85.5598 74.308 85.1703 73.0242C84.9917 72.4469 84.7212 71.8555 84.3587 71.2674L84.8187 70.9833C85.2028 71.6115 85.4949 72.2456 85.6843 72.8673C86.1334 74.3432 85.9602 75.6071 85.1919 76.4256C84.6509 77.0051 83.8664 77.3037 82.9196 77.3037Z" fill="#117BDF"></path>
  <path d="M81.3264 74.3008C81.1479 74.3008 80.9531 74.278 80.7529 74.2315C79.3624 73.9074 77.9449 72.5819 77.5337 71.2141C77.3227 70.5167 77.4039 69.9054 77.7664 69.4926L84.4698 62.333L84.8648 62.7026L78.1668 69.8567C77.9395 70.1174 77.8962 70.5454 78.0477 71.0567C78.4102 72.2367 79.6763 73.4253 80.8774 73.7045C81.4184 73.8311 81.8512 73.744 82.0839 73.4594L87.2887 67.9003L87.6836 68.2698L82.4897 73.8171C82.23 74.1325 81.8188 74.3008 81.3264 74.3008Z" fill="#141414"></path>
  <path d="M103.395 75.7616C102.124 75.7616 100.874 75.5809 99.646 75.2071L95.1445 74.1218L95.3989 73.07L99.9327 74.1634C109.79 77.1694 121.617 66.7631 127.482 49.9634C134.067 31.0882 131.08 10.7296 120.822 4.57959C119.886 4.01962 118.864 3.59056 117.776 3.3049C117.754 3.29949 117.738 3.29301 117.717 3.28598C117.403 3.19292 114.541 2.47822 112.658 2.01184L112.918 0.96167C112.918 0.96167 114.2 1.27925 115.482 1.60009C116.9 1.95447 117.652 2.14223 118.041 2.29101L118.052 2.25799C119.237 2.57017 120.357 3.03926 121.379 3.65226C132.054 10.0511 135.246 30.9865 128.505 50.3199C123.159 65.6313 112.88 75.7616 103.395 75.7616Z" fill="#141414"></path>
  <path d="M110.024 1.67053C108.466 1.67053 106.854 1.96323 105.23 2.55242C97.5207 5.34525 90.1463 14.4812 85.9911 26.3937C79.4067 45.2684 82.3933 65.6276 92.6513 71.777C95.9517 73.7577 99.7713 74.0548 103.688 72.6367C111.398 69.8439 118.767 60.7079 122.928 48.7954C129.512 29.9202 126.526 9.56155 116.268 3.41212C114.336 2.25322 112.226 1.67053 110.024 1.67053ZM98.884 74.6039C96.4926 74.6039 94.1987 73.9688 92.0941 72.7049C81.4194 66.3055 78.2219 45.3706 84.9686 26.0372C89.2969 13.6399 96.7307 4.48013 104.863 1.53527C109.093 0.00197044 113.232 0.329854 116.825 2.48426C127.494 8.88311 130.692 29.818 123.945 49.1519C119.622 61.5492 112.183 70.709 104.056 73.6544C102.303 74.288 100.572 74.6039 98.884 74.6039Z" fill="#141414"></path>
  <path d="M108.478 10.6168C107.315 10.6168 106.119 10.8348 104.907 11.2736C99.1289 13.3664 93.6049 20.2234 90.4831 29.1695C85.5975 43.1704 87.8969 58.8535 95.5093 63.4166C97.9278 64.866 100.719 65.0835 103.587 64.0458C109.365 61.9514 114.922 55.0262 118.081 45.9725C123.026 31.7968 120.797 16.5163 113.115 11.911C111.681 11.0502 110.112 10.6168 108.478 10.6168ZM100.07 65.776C98.2686 65.776 96.5427 65.2972 94.952 64.3445C86.7932 59.4535 84.3315 43.514 89.4605 28.8129C92.7338 19.427 98.3714 12.4904 104.539 10.2559C107.769 9.08565 110.929 9.33777 113.672 10.9831C121.771 15.8383 124.206 31.6945 119.104 46.329C115.841 55.6819 110.036 62.8609 103.955 65.063C102.64 65.5391 101.336 65.776 100.07 65.776Z" fill="#141414"></path>
</svg>
