<?xml version="1.0" encoding="UTF-8"?>
<svg xmlns="http://www.w3.org/2000/svg" width="200" height="125" viewBox="0 0 200 125" fill="none">
  <path d="M57.1169 125C57.0789 125 57.0408 124.999 57.0015 124.997C55.8191 124.942 54.4689 124.079 53.9283 123.032C53.6389 122.472 53.6233 121.942 53.8839 121.538C54.0417 121.277 59.9351 110.622 71.3982 89.8723L71.9439 90.1735C54.5606 121.641 54.4459 121.818 54.4078 121.877C54.2756 122.081 54.3024 122.398 54.482 122.746C54.9155 123.584 56.0829 124.33 57.0308 124.374C57.4375 124.396 57.7568 124.275 57.8796 124.046C57.9133 123.983 58.0162 123.792 79.7394 95.114L80.2364 95.49C66.3861 113.776 58.638 124.027 58.4191 124.359C58.202 124.764 57.7281 125 57.1169 125Z" fill="#141414"></path>
  <path d="M105.218 103.061C104.635 103.061 104.044 103.047 103.443 103.019C84.8945 102.156 62.8994 88.0937 54.411 71.6733C50.189 63.5049 49.876 55.9875 53.5299 50.5057C56.7902 45.6139 59.8866 40.7682 59.9178 40.7196L60.9686 41.3907C60.9374 41.4393 57.8355 46.2956 54.5676 51.1974C51.1769 56.2844 51.5149 63.3527 55.5199 71.1008C63.8249 87.1682 85.3491 100.928 103.501 101.773C111.721 102.157 118.144 99.8175 121.561 95.1876C125.243 90.1991 128.28 84.9356 128.31 84.8832L129.391 85.505C129.36 85.5586 126.289 90.8832 122.565 95.9278C119.147 100.558 113.028 103.061 105.218 103.061Z" fill="#141414"></path>
  <path d="M111.79 93.2594C111.2 93.2594 110.602 93.2457 109.993 93.217C91.4447 92.3533 69.449 78.2915 60.9613 61.8704C56.8004 53.8211 56.438 46.3793 59.9404 40.9162C63.4658 35.4182 70.4406 32.6268 79.5962 33.0515C80.402 33.0889 81.2289 33.1519 82.0552 33.2398L81.9236 34.4796C81.1223 34.3954 80.3196 34.3337 79.5376 34.2969C70.8566 33.8915 64.2653 36.4821 60.9906 41.5891C57.739 46.6612 58.1219 53.6609 62.0695 61.2979C70.3745 77.366 91.8994 91.126 110.052 91.971C118.741 92.3739 125.323 89.7851 128.598 84.6794C131.85 79.6067 131.466 72.6076 127.518 64.9699C127.12 64.1972 126.678 63.4102 126.207 62.6294L127.275 61.984C127.76 62.7884 128.216 63.6004 128.627 64.3981C132.788 72.4474 133.151 79.8892 129.648 85.3523C126.357 90.4842 120.056 93.2594 111.79 93.2594Z" fill="#141414"></path>
  <path d="M104.382 79.9175C104.052 79.9175 103.719 79.9094 103.378 79.8938C93.0295 79.4111 80.7582 71.5657 76.0229 62.4051C74.2355 58.9476 73.7011 55.6636 74.4769 52.909L74.513 52.8123C74.6265 52.42 74.7806 52.0165 74.9608 51.6355L91.3407 8.24023L91.9244 8.46038L75.5346 51.8793C75.3574 52.2541 75.2165 52.6271 75.103 53.0118L75.0681 53.1054C74.3447 55.6779 74.8629 58.8042 76.5767 62.1182C81.2215 71.1036 93.2565 78.7981 103.407 79.2702C107.379 79.4566 110.562 78.528 112.625 76.5897L112.683 76.5293C112.824 76.3939 112.954 76.2623 113.077 76.1258L146.189 42.0209L146.636 42.4549L113.532 76.5505C113.409 76.6895 113.268 76.8311 113.124 76.9708C113.103 76.9926 113.079 77.0176 113.051 77.0419C111.044 78.9321 108.06 79.9175 104.382 79.9175Z" fill="#117BDF"></path>
  <path d="M93.7522 22.5111C87.0331 9.57626 93.4896 -0.35893 108.174 0.322083C122.857 1.00247 140.208 12.0396 146.927 24.9751C153.645 37.9106 147.189 47.8452 132.505 47.1648C117.821 46.4844 100.471 35.446 93.7522 22.5111Z" fill="#117BDF"></path>
  <path d="M106.693 0.623167C100.357 0.623167 95.5586 2.70923 93.0902 6.56831C90.4759 10.6556 90.7853 16.2746 93.9621 22.3906C100.625 35.217 117.891 46.2012 132.453 46.8766C139.471 47.2008 144.809 45.1023 147.455 40.9638C150.07 36.8765 149.76 31.2575 146.583 25.1415C139.92 12.3151 122.654 1.331 108.092 0.656226C107.619 0.634399 107.151 0.623167 106.693 0.623167ZM133.851 47.5326C133.384 47.5326 132.908 47.5214 132.424 47.4996C117.665 46.8148 100.162 35.6804 93.4089 22.6775C90.1255 16.3557 89.8255 10.5153 92.5651 6.23216C95.3372 1.89788 100.86 -0.301074 108.122 0.0331965C122.881 0.716704 140.383 11.8518 147.137 24.854C150.421 31.1765 150.721 37.0168 147.981 41.3C145.394 45.3449 140.408 47.5326 133.851 47.5326Z" fill="#117BDF"></path>
</svg>
