<?xml version="1.0" encoding="UTF-8"?>
<svg xmlns="http://www.w3.org/2000/svg" width="200" height="125" viewBox="0 0 200 125" fill="none">
  <path d="M59.8424 83.6097C59.7763 83.6097 59.7094 83.5942 59.6502 83.5635L0.191419 49.1651C0.0730425 49.096 0 48.9653 0 48.827V41.5399H0.768679V48.6117L59.8424 82.7872L82.2302 69.7965C83.171 69.2508 83.7199 68.5512 83.7775 67.8133C83.779 67.7979 83.7814 67.7826 83.7844 67.7672C83.7852 67.7288 83.786 67.6442 83.786 67.6365V60.7569H84.5547V67.7441C84.5547 67.7902 84.5508 67.8364 84.5439 67.8748C84.4639 68.8741 83.7791 69.7888 82.6153 70.4576L60.0354 83.5635C59.9762 83.5942 59.9093 83.6097 59.8424 83.6097Z" fill="#141414"></path>
  <path d="M101.253 30.1654L101.133 29.4045C101.904 29.2815 102.616 29.2353 103.312 29.2584C106.169 29.3506 108.962 28.7434 110.971 27.5827C112.785 26.5373 113.786 25.169 113.789 23.7316C113.788 23.4011 113.788 22.1174 113.788 16.5214C113.788 16.3139 113.955 16.1371 114.164 16.1371C114.39 16.1371 114.547 16.2985 114.556 16.506L114.561 16.6367C114.562 16.6597 114.56 16.6828 114.556 16.7136C114.556 17.8435 114.557 23.624 114.557 23.7239C114.553 25.4535 113.417 27.06 111.355 28.2514C109.226 29.4813 106.286 30.1347 103.287 30.027C102.64 30.004 101.975 30.0501 101.253 30.1654Z" fill="#141414"></path>
  <path d="M110.119 54.9585L109.721 54.3052L121.134 47.3948V43.0902H121.903V47.61C121.903 47.7484 121.832 47.8713 121.717 47.9405L110.119 54.9585Z" fill="#141414"></path>
  <path d="M86.3698 55.393C85.7402 54.8319 84.9369 54.3399 83.983 53.9248C80.4079 52.3797 75.2754 52.4259 71.7772 54.0401C71.1507 54.3322 70.5888 54.6628 70.1068 55.0241L69.6487 54.4014C70.1722 54.017 70.7794 53.6557 71.4543 53.3483C75.1332 51.6418 80.5309 51.5956 84.2882 53.2253C85.3167 53.6711 86.1883 54.2015 86.8794 54.8165L86.3698 55.393Z" fill="#141414"></path>
  <path d="M51.7609 35.6214C49.747 34.0687 46.5477 33.2078 43.2001 33.3154C41.2554 33.3692 39.4859 33.0003 38.2122 32.2623C36.847 31.4783 36.1398 30.356 36.2713 29.1799L36.269 22.3386H37.0377V29.226C36.9393 30.1176 37.5081 30.9709 38.5965 31.6012C39.7311 32.2545 41.4029 32.6005 43.1763 32.5467C46.6961 32.4391 50.0798 33.3538 52.2298 35.0065L51.7609 35.6214Z" fill="#141414"></path>
  <path d="M60.2429 76.7453C60.1099 76.7453 59.9777 76.7145 59.8578 76.6453L0.383565 42.2394C0.146043 42.101 0 41.8472 0 41.5705C0 41.2938 0.145293 41.0401 0.382814 40.9095L22.9143 27.8419C25.5024 26.343 29.5549 26.343 32.143 27.8419C33.6166 28.6875 34.3838 29.9558 34.2462 31.3164C34.107 32.6923 35.0579 34.076 36.8535 35.1137C40.9506 37.4812 47.7219 37.2582 51.3447 34.6524C52.5523 33.7761 53.2264 32.7 53.2425 31.6162C53.2587 30.5631 52.6514 29.51 51.5322 28.6491C49.5874 27.1578 46.4797 26.32 43.2174 26.4276C41.2066 26.4891 39.3602 26.0971 38.0257 25.3284C36.6483 24.529 35.8896 23.4298 35.8896 22.2229C35.8896 21.0161 36.6483 19.9092 38.025 19.1174L60.6595 6.10377C60.897 5.96541 61.1899 5.96541 61.4274 6.10377L83.6368 18.9253C85.7207 20.1321 89.2405 20.1321 91.3244 18.9253C92.2614 18.3872 92.738 17.6646 92.6665 16.9037C92.4497 14.5746 94.1669 12.3838 97.2601 11.0386C101.11 9.3706 106.639 9.42444 110.408 11.1693C113.068 12.3992 114.646 14.2748 114.739 16.3271C114.826 18.2412 113.59 20.086 111.348 21.3774C109.158 22.6457 106.141 23.3068 103.074 23.2069C101.413 23.1531 99.829 23.4758 98.7475 24.0985C97.8789 24.5981 97.3808 25.2515 97.3808 25.8742C97.3808 26.5045 97.8789 27.1501 98.7475 27.6498L120.907 40.4483C121.144 40.5866 121.291 40.8403 121.291 41.1093C121.291 41.3861 121.144 41.6397 120.907 41.7781L106.923 49.8492L106.154 48.5194L118.985 41.1093L97.9788 28.9797C96.6021 28.1879 95.8435 27.081 95.8435 25.8742C95.8435 24.6673 96.6021 23.5604 97.9788 22.7687C99.3217 21.9923 101.147 21.608 103.126 21.6695C105.915 21.7618 108.63 21.1698 110.579 20.0475C112.332 19.0329 113.264 17.7338 113.203 16.3963C113.137 14.9358 111.883 13.5445 109.763 12.5606C106.357 10.9848 101.355 10.9388 97.8712 12.4531C95.4192 13.5138 94.0455 15.128 94.1977 16.7576C94.3261 18.1336 93.5589 19.4095 92.0931 20.2551C89.5072 21.754 85.4555 21.754 82.8689 20.2551L61.0423 7.65642L38.7929 20.4472C37.925 20.9469 37.427 21.5926 37.427 22.2229C37.427 22.8456 37.9258 23.4912 38.7944 23.9985C39.8683 24.6135 41.4648 24.944 43.1698 24.8902C46.8325 24.7749 50.2185 25.7051 52.47 27.4346C53.9828 28.5953 54.8037 30.0942 54.7799 31.6393C54.7561 33.2227 53.8552 34.7371 52.244 35.8978C48.1208 38.8725 40.7208 39.1185 36.0849 36.4435C33.7419 35.0906 32.5143 33.1689 32.7165 31.1627C32.7911 30.4247 32.3145 29.7176 31.3744 29.1718C29.2889 27.965 25.7669 27.965 23.6845 29.1718L2.30219 41.5705L60.2429 75.0927L82.4446 62.2096C83.3148 61.71 83.8129 61.0566 83.8129 60.4339C83.8129 59.8036 83.3148 59.158 82.4462 58.6583C81.3646 58.0357 79.7904 57.7051 78.1192 57.7666C75.0522 57.8666 72.0359 57.1978 69.846 55.9372C67.6037 54.6381 66.3677 52.801 66.4546 50.8793C66.5476 48.8346 68.1257 46.9513 70.7845 45.7214C74.5534 43.9842 80.0825 43.9305 83.932 45.5985C85.477 46.2672 86.6654 47.1204 87.4649 48.1428L86.2565 49.0882C85.6254 48.2888 84.6108 47.5663 83.3209 47.0051C79.8365 45.4985 74.8347 45.5447 71.4294 47.1205C69.3094 48.0967 68.0565 49.4957 67.9904 50.9485C67.9289 52.2936 68.8613 53.5927 70.6146 54.6074C72.5632 55.7296 75.2836 56.3215 78.0678 56.2293C80.0464 56.1601 81.872 56.5521 83.2148 57.3284C84.5923 58.1202 85.3502 59.2271 85.3502 60.4339C85.3502 61.6408 84.5915 62.7477 83.2148 63.5394L60.6288 76.6453C60.5096 76.7145 60.3766 76.7453 60.2429 76.7453Z" fill="#141414"></path>
  <path d="M60.8756 76.1256H60.1069V83.0437H60.8756V76.1256Z" fill="#141414"></path>
  <path d="M140.158 118.211C140.091 118.211 140.024 118.195 139.965 118.157L117.383 105.059C116.224 104.39 115.535 103.468 115.447 102.476L115.445 102.23V95.3426H116.214V102.445C116.279 103.145 116.831 103.852 117.768 104.39L140.158 117.381L199.231 83.2051V76.1256H200V83.4281C200 83.5664 199.926 83.6894 199.808 83.7585L140.35 118.157C140.29 118.195 140.224 118.211 140.158 118.211Z" fill="#117BDF"></path>
  <path d="M106.517 97.3873C104.737 97.3873 102.934 96.8953 101.291 95.9498L79.3817 83.2974C79.2626 83.2282 79.1896 83.1052 79.1896 82.9669V76.1256H79.9583V82.7439L101.675 95.2811C103.755 96.4802 106.105 96.8953 108.293 96.4341C110.685 95.9344 112.087 94.7276 111.952 93.2748C111.752 91.1225 113.383 89.0778 116.317 87.8018C120.074 86.1722 125.472 86.2261 129.151 87.9248L128.828 88.6244C125.33 87.0101 120.197 86.9563 116.622 88.509C114.009 89.639 112.549 91.3993 112.718 93.2057C112.855 94.6738 111.805 96.488 108.45 97.1875C107.815 97.3181 107.168 97.3873 106.517 97.3873Z" fill="#117BDF"></path>
  <path d="M96.5163 64.5746C93.7444 64.5746 91.0548 63.9288 89.0701 62.7835C87.0215 61.5997 85.8847 59.9932 85.8685 58.2637V50.723H86.6372V58.2637C86.6503 59.7088 87.6511 61.077 89.4544 62.1148C91.463 63.2755 94.2632 63.8828 97.112 63.7905L99.7063 63.8059L99.7032 64.5746L97.1235 64.5592C96.9213 64.5669 96.7184 64.5746 96.5163 64.5746Z" fill="#117BDF"></path>
  <path d="M148.352 70.1881L147.884 69.5809C150.034 67.9282 153.42 67.0134 156.938 67.1133C158.712 67.1748 160.383 66.8289 161.517 66.1679C162.61 65.5376 163.172 64.692 163.058 63.8465C163.053 63.8157 163.053 63.7774 163.057 63.7466C163.071 63.4238 163.076 59.442 163.076 56.8054H163.845L163.843 60.3029C163.839 62.3168 163.837 63.2854 163.781 63.7466H163.819C163.977 64.915 163.278 66.0449 161.902 66.8366C160.628 67.5746 158.859 67.9435 156.914 67.882C153.572 67.7898 150.366 68.643 148.352 70.1881Z" fill="#117BDF"></path>
  <path d="M80.1429 75.6382L102.302 62.8397C104.637 61.4945 104.637 59.3115 102.302 57.9586C101.053 57.236 99.3246 56.9055 97.5651 56.9669C94.7402 57.0592 91.8615 56.4827 89.7023 55.2374C85.413 52.7623 85.7059 48.6422 90.5793 46.39C94.169 44.7297 99.4222 44.6758 103.1 46.2747C106.034 47.543 107.409 49.4724 107.233 51.3556C107.137 52.3857 107.699 53.3926 108.957 54.1152C111.291 55.4681 115.077 55.4681 117.412 54.1152L119.66 52.8239L139.622 41.3013L162.255 54.3074C164.591 55.6525 164.59 57.8433 162.255 59.1884C160.997 59.9187 159.248 60.2416 157.471 60.1801C154.203 60.0801 150.868 60.8719 148.664 62.5706C145.904 64.6922 145.997 67.7285 148.871 69.7962C152.772 72.6096 159.907 72.7787 164.196 70.3036C166.355 69.0583 167.349 67.398 167.183 65.7684C167.081 64.746 167.661 63.7544 168.907 63.0318C171.245 61.679 175.03 61.679 177.365 63.0318L199.897 76.0994L140.422 110.505L117.835 97.3995C115.501 96.0543 115.501 93.8635 117.835 92.5183C119.084 91.7958 120.813 91.4653 122.572 91.5191C125.397 91.6191 128.276 91.0425 130.435 89.7973C134.724 87.3221 134.432 83.202 129.558 80.9498C125.968 79.2894 120.715 79.2356 117.039 80.8268C114.102 82.1028 112.729 84.0245 112.904 85.9154C113 86.9378 112.439 87.9524 111.18 88.675C108.845 90.0278 105.06 90.0278 102.725 88.675L80.1429 75.6382Z" fill="#117BDF"></path>
  <path d="M121.61 91.928C120.013 91.928 118.517 92.2739 117.458 92.8812C116.453 93.4654 115.899 94.211 115.899 94.995C115.899 95.7714 116.453 96.517 117.458 97.1012L139.853 110.092L198.561 76.1316L176.603 63.3947C174.38 62.111 170.758 62.111 168.53 63.3947C167.45 64.0173 166.906 64.8551 166.997 65.7545C167.184 67.607 166.026 69.398 163.819 70.6664C159.378 73.2337 152.022 72.9878 148.077 70.1437C146.567 69.0522 145.723 67.6532 145.7 66.1927C145.679 64.7706 146.446 63.3869 147.861 62.2954C150.011 60.6428 153.397 59.7281 156.915 59.828C158.692 59.8895 160.36 59.5436 161.494 58.8902C162.5 58.306 163.053 57.5604 163.053 56.7764C163.053 56 162.5 55.2544 161.494 54.6702L139.054 41.7717L117.034 54.4857C114.598 55.8924 110.632 55.8924 108.195 54.4857C106.865 53.717 106.167 52.5716 106.281 51.3494C106.449 49.5431 104.99 47.7905 102.378 46.6605C98.8017 45.1078 93.6684 45.1539 90.1717 46.7758C87.9171 47.8136 86.582 49.3279 86.509 50.9344C86.4413 52.4257 87.4414 53.8477 89.3254 54.9392C91.334 56.0999 94.1289 56.7071 96.983 56.6149C98.8885 56.5457 100.643 56.9224 101.925 57.6604C103.179 58.3829 103.869 59.3668 103.869 60.4353C103.869 61.4961 103.179 62.4876 101.925 63.2102L80.3426 75.6705L102.348 88.3767C104.574 89.6604 108.194 89.6604 110.419 88.3767C111.494 87.7541 112.038 86.9086 111.952 85.9862C111.752 83.8262 113.383 81.7815 116.317 80.5055C120.074 78.8836 125.472 78.9297 129.151 80.6285C131.675 81.7969 133.172 83.5571 133.258 85.4557C133.339 87.2544 132.202 88.9225 130.058 90.16C127.928 91.3899 124.99 92.0433 121.99 91.9357C121.863 91.9357 121.736 91.928 121.61 91.928ZM139.853 110.922C139.786 110.922 139.72 110.907 139.66 110.868L117.073 97.7623C115.82 97.0397 115.13 96.0558 115.13 94.995C115.13 93.9266 115.82 92.9427 117.074 92.2201C118.355 91.4745 120.107 91.1056 122.016 91.167C124.875 91.2593 127.665 90.6597 129.673 89.499C131.557 88.4075 132.557 86.9854 132.49 85.4942C132.418 83.8877 131.082 82.3733 128.828 81.3279C125.331 79.7137 120.198 79.6676 116.622 81.2126C114.008 82.3502 112.549 84.1029 112.718 85.9093C112.832 87.1315 112.134 88.2768 110.803 89.0378C108.366 90.4445 104.401 90.4445 101.964 89.0378L79.3817 76.001C79.2626 75.9318 79.1896 75.8088 79.1896 75.6705C79.1896 75.5321 79.2626 75.4092 79.3817 75.34L101.54 62.5415C102.546 61.9573 103.1 61.2116 103.1 60.4353C103.1 59.6512 102.546 58.9056 101.54 58.3291C100.399 57.668 98.7548 57.3221 97.0091 57.3836C94.0166 57.4912 91.0718 56.8378 88.9411 55.6003C86.7964 54.3627 85.6596 52.6947 85.741 50.896C85.8271 48.9973 87.3245 47.2447 89.8488 46.0763C93.5277 44.3699 98.9246 44.3237 102.683 45.9533C105.616 47.2216 107.247 49.2663 107.046 51.4263C106.96 52.3487 107.505 53.1943 108.579 53.817C110.805 55.1007 114.425 55.1007 116.65 53.817L138.861 40.9954C138.979 40.9262 139.126 40.9262 139.244 40.9954L161.878 54.0091C163.132 54.7317 163.822 55.7156 163.822 56.7764C163.822 57.8448 163.132 58.8287 161.879 59.5513C160.606 60.2892 158.836 60.6659 156.891 60.5967C153.548 60.5044 150.343 61.3577 148.329 62.9104C147.112 63.8405 146.45 65.0089 146.469 66.1773C146.487 67.3918 147.218 68.5756 148.527 69.521C152.256 72.2114 159.223 72.4343 163.434 70.0053C165.368 68.8907 166.388 67.3687 166.232 65.839C166.111 64.6322 166.808 63.5023 168.146 62.7336C170.584 61.3269 174.551 61.3192 176.989 62.7259L199.521 75.8012C199.639 75.8627 199.712 75.9933 199.712 76.1316C199.712 76.27 199.638 76.393 199.52 76.4622L140.045 110.868C139.986 110.907 139.919 110.922 139.853 110.922Z" fill="#117BDF"></path>
  <path d="M140.066 110.711H139.297V117.629H140.066V110.711Z" fill="#117BDF"></path>
</svg>
