<?xml version="1.0" encoding="UTF-8"?>
<svg xmlns="http://www.w3.org/2000/svg" width="200" height="125" viewBox="0 0 200 125" fill="none">
  <path d="M138.723 122.042L138.215 121.024L143.468 118.404C152.136 113.395 156.926 102.759 156.926 88.4672C156.926 74.0561 152.062 57.7008 143.229 42.4029C134.397 27.105 122.662 14.712 110.184 7.50931C97.8045 0.36346 86.1967 -0.807647 77.4988 4.21207L74.2414 5.76972L73.752 4.7408L76.9696 3.20585C85.996 -2.00716 98.0075 -0.836101 110.753 6.52578C123.4 13.8251 135.284 26.366 144.214 41.8344C153.145 57.3029 158.063 73.8628 158.063 88.4672C158.063 103.185 153.071 114.168 144.006 119.404L138.723 122.042Z" fill="#141414"></path>
  <path fill-rule="evenodd" clip-rule="evenodd" d="M105.581 49.7189C98.9138 45.8702 93.5098 48.9855 93.5098 56.6885C93.5098 60.1903 94.6348 64.039 96.4852 67.5579C97.9809 67.1656 99.2964 66.4039 100.644 65.6535C101.894 64.9656 103.184 64.3687 104.396 63.607C105.272 63.0612 106.803 62.9418 106.654 64.454C106.528 65.7274 104.617 66.3868 103.644 66.7848C102.75 67.1486 101.899 67.5579 101.064 68.0468C100.059 68.638 98.8484 69.2065 97.9002 69.9456L98.0952 70.2696C100.153 73.3394 102.753 75.9601 105.581 77.5916C112.248 81.4403 117.652 78.325 117.652 70.622C117.652 62.9248 112.248 53.5675 105.581 49.7189Z" fill="#117BDF"></path>
  <path d="M126.831 125C120.289 125 113.042 122.817 105.54 118.485C93.5665 111.572 82.1451 99.8104 73.3807 85.3766L74.3529 84.7853C83.0194 99.06 94.2976 110.68 106.109 117.502C118.488 124.648 130.096 125.819 138.794 120.793C147.492 115.773 152.282 105.137 152.282 90.8397C152.282 76.4343 147.418 60.079 138.585 44.7754C129.753 29.4832 118.018 17.0902 105.54 9.88749C93.1606 2.73596 81.5527 1.56492 72.8549 6.59032C64.1571 11.61 59.3665 22.2464 59.3665 36.5437C59.3665 50.4148 63.9223 66.2301 72.1949 81.0732L71.2017 81.6303C62.8365 66.6166 58.2295 50.6024 58.2295 36.5437C58.2295 21.8257 63.2219 10.8369 72.2864 5.60117C81.3515 0.371108 93.363 1.54214 106.109 8.89834C118.756 16.2034 130.64 28.7441 139.571 44.2069C148.501 59.6754 153.419 76.241 153.419 90.8397C153.419 105.558 148.427 116.547 139.362 121.782C135.633 123.931 131.404 125 126.831 125Z" fill="#141414"></path>
  <path d="M78.7469 81.9542C86.0627 93.9038 95.5399 103.625 105.457 109.35C115.981 115.427 125.861 116.416 133.276 112.135C140.691 107.849 144.776 98.8041 144.776 86.6499C144.776 74.4445 140.655 60.5792 133.171 47.6234C125.69 34.662 115.747 24.162 105.173 18.0565C94.6485 11.9794 84.7688 10.9903 77.3529 15.271C69.9376 19.5517 65.8536 28.6019 65.8536 40.7561C65.8536 52.4954 69.6977 65.8604 76.6816 78.4183L80.5376 76.2694C74.6356 65.6046 71.3884 54.2576 71.3884 44.2807C71.3884 33.7979 74.938 25.9755 81.3829 22.2519C87.8273 18.534 96.3773 19.3697 105.457 24.6112C114.488 29.8242 122.973 38.7835 129.35 49.8291C135.728 60.8748 139.24 72.6993 139.24 83.1253C139.24 93.6082 135.691 101.431 129.246 105.154C122.802 108.872 114.252 108.036 105.173 102.795C96.7786 97.9457 88.7465 89.7481 82.5324 79.6803L78.7469 81.9542ZM123.064 115.324C117.571 115.324 111.481 113.482 105.173 109.844C95.1067 104.029 85.4971 94.1426 78.1124 82.0054C78.0732 81.9429 78.0613 81.8633 78.0795 81.7894C78.0977 81.7155 78.1443 81.6529 78.2085 81.6131L82.4807 79.0436C82.6137 78.964 82.7877 79.0095 82.8695 79.1402C89.0552 89.2365 97.0771 97.4625 105.457 102.3C114.353 107.439 122.701 108.275 128.962 104.66C135.224 101.044 138.672 93.3978 138.672 83.1253C138.672 72.796 135.187 61.0738 128.858 50.1134C122.53 39.1473 114.119 30.2676 105.173 25.1057C96.2767 19.9666 87.929 19.131 81.6672 22.7465C75.4053 26.3621 71.9569 34.0082 71.9569 44.2807C71.9569 54.2349 75.2297 65.5876 81.172 76.241C81.209 76.3035 81.2175 76.3831 81.197 76.457C81.1766 76.5252 81.1283 76.5877 81.0623 76.6275L76.7106 79.0493C76.5736 79.1288 76.4007 79.0777 76.324 78.9413C69.2054 66.23 65.2852 52.6659 65.2852 40.7561C65.2852 28.3916 69.4703 19.1651 77.0687 14.7821C84.6676 10.3934 94.7497 11.3825 105.457 17.5676C116.116 23.7186 126.133 34.2924 133.664 47.3392C141.196 60.3802 145.344 74.3422 145.344 86.6499C145.344 99.0144 141.159 108.241 133.56 112.624C130.438 114.426 126.896 115.324 123.064 115.324Z" fill="#117BDF"></path>
  <path d="M88.7087 76.1356C93.4152 83.6396 99.4479 89.7565 105.723 93.3834C112.548 97.323 118.951 97.9654 123.751 95.1912C128.551 92.4227 131.194 86.5559 131.194 78.6767C131.194 70.7407 128.514 61.7245 123.647 53.2939C118.779 44.8633 112.313 38.0357 105.439 34.0677C98.6128 30.1224 92.2105 29.4801 87.4103 32.2543C82.61 35.0228 79.9659 40.8896 79.9659 48.7688C79.9659 56.2955 82.4036 64.8682 86.8344 72.9464L90.7143 70.8373C87.3506 64.6465 85.5007 58.0692 85.5007 52.2934C85.5007 46.0798 87.6104 41.441 91.4402 39.2296C95.2707 37.0239 100.343 37.5127 105.723 40.6224C111.054 43.6979 116.062 48.9848 119.825 55.4996C123.587 62.0145 125.66 68.9954 125.66 75.1521C125.66 81.3656 123.551 86.0045 119.721 88.2159C115.89 90.4273 110.819 89.9327 105.439 86.8288C100.724 84.1058 96.1626 79.5465 92.5738 73.9754L88.7087 76.1356ZM117.146 97.4594C113.549 97.4594 109.564 96.2543 105.439 93.8723C99.0142 90.1658 92.8455 83.8841 88.0686 76.1868C88.0276 76.1186 88.0157 76.039 88.0344 75.9651C88.0538 75.8855 88.1032 75.8229 88.1709 75.7888L92.5295 73.35C92.6619 73.2761 92.8279 73.3159 92.9081 73.441C96.4708 79.0405 101.021 83.6169 105.723 86.3342C110.919 89.3358 115.79 89.8247 119.437 87.7213C123.083 85.6179 125.091 81.1496 125.091 75.1521C125.091 69.0921 123.046 62.2134 119.332 55.7839C115.619 49.3543 110.685 44.1413 105.439 41.1112C100.242 38.1096 95.3713 37.6208 91.7245 39.7242C88.0777 41.8276 86.0692 46.2958 86.0692 52.2934C86.0692 58.0578 87.9446 64.6294 91.3493 70.8146C91.3857 70.8771 91.3942 70.9567 91.3732 71.0306C91.3516 71.1045 91.3027 71.1614 91.2362 71.2012L86.8577 73.5774C86.7207 73.6513 86.5484 73.6058 86.4734 73.4694C81.9107 65.2378 79.3975 56.4661 79.3975 48.7688C79.3975 40.6792 82.1421 34.6362 87.126 31.7597C92.1099 28.8832 98.7146 29.5255 105.723 33.5731C112.682 37.5923 119.223 44.4938 124.139 53.0097C129.055 61.5256 131.763 70.6384 131.763 78.6767C131.763 86.7663 129.018 92.8092 124.035 95.6858C121.985 96.8682 119.66 97.4594 117.146 97.4594Z" fill="#141414"></path>
  <path d="M55.9553 92.0895L49.1727 87.1494C49.0925 87.0925 49.0482 86.9959 49.0567 86.8993C49.0652 86.797 49.1249 86.7117 49.2142 86.6662L63.9078 79.4123C63.9823 79.3725 64.0692 79.3725 64.146 79.4009L70.3379 82.0672L70.1128 82.5901L64.042 79.9751L49.8873 86.9675L56.2895 91.629L55.9553 92.0895Z" fill="#117BDF"></path>
  <path d="M51.5821 88.6232L51.332 88.1115L65.6334 81.0851C65.6913 81.0567 65.7567 81.051 65.821 81.0624L70.0624 82.0174L69.9374 82.5745L65.7937 81.6422L51.5821 88.6232ZM51.4571 105.422C51.39 105.422 51.3235 105.399 51.27 105.348C51.1705 105.263 51.1444 105.121 51.2058 105.001L56.7514 94.4616L57.2545 94.7287L52.2643 104.211L66.6447 93.967L71.8878 85.5818L72.3699 85.8831L67.0966 94.3137C67.0767 94.3478 67.0512 94.3763 67.0205 94.399L51.6219 105.365C51.5725 105.405 51.5145 105.422 51.4571 105.422Z" fill="#117BDF"></path>
  <path d="M74.1071 84.7155L73.8155 84.2267L106.43 64.7674C106.446 64.739 106.467 64.7163 106.494 64.6935C106.549 64.6537 106.582 64.5571 106.582 64.4264C106.582 64.0057 106.275 63.477 105.911 63.2666C105.856 63.2325 105.674 63.1415 105.592 63.2325C105.567 63.2609 105.535 63.2894 105.501 63.3008C104.976 63.5793 72.94 81.2762 72.616 81.4524L72.3408 80.9579L103.825 63.5736C104.52 63.1927 104.921 62.971 105.163 62.863C105.407 62.5788 105.803 62.5446 106.196 62.772C106.731 63.079 107.15 63.8067 107.15 64.4264C107.15 64.6822 107.074 64.9039 106.933 65.0574C106.912 65.1142 106.879 65.1654 106.83 65.1938L74.1071 84.7155Z" fill="#141414"></path>
  <path d="M42.9573 99.2683C42.8908 99.2683 42.8317 99.2797 42.7822 99.3081C42.6464 99.3877 42.5685 99.5866 42.5685 99.8481C42.5685 100.525 43.0602 101.377 43.6429 101.713C43.8726 101.844 44.0824 101.878 44.2188 101.798C44.3547 101.718 44.4326 101.52 44.4326 101.252C44.4326 100.582 43.9408 99.7288 43.3587 99.3934C43.212 99.3081 43.0739 99.2683 42.9573 99.2683ZM44.0443 102.406C43.8283 102.406 43.5952 102.338 43.3587 102.202C42.5969 101.764 42 100.729 42 99.8481C42 99.3706 42.1768 99.0011 42.498 98.8192C42.8203 98.6316 43.2262 98.66 43.6429 98.9045C44.4041 99.3422 45.001 100.377 45.001 101.252C45.001 101.736 44.8242 102.105 44.503 102.287C44.3638 102.367 44.2091 102.406 44.0443 102.406Z" fill="#141414"></path>
  <path d="M51.5308 105.421L49.1887 103.943C49.0613 103.863 49.0187 103.698 49.0903 103.567L52.616 97.1094L53.1152 97.3822L49.7173 103.602L51.8338 104.937L51.5308 105.421Z" fill="#117BDF"></path>
  <path d="M43.9804 102.314L43.6962 101.819L56.2887 94.5429C56.4104 94.4633 56.4854 94.2643 56.4854 94.0028C56.4854 93.2979 55.976 92.4168 55.3734 92.07C55.2177 91.9791 54.9914 91.8881 54.8033 91.979L42.2875 99.3011L42.001 98.8122L54.5378 91.4731C54.8811 91.3139 55.2705 91.3537 55.6577 91.5754C56.4405 92.0245 57.0539 93.0932 57.0539 94.0028C57.0539 94.4633 56.8885 94.8271 56.5877 95.0261L43.9804 102.314Z" fill="#141414"></path>
  <path d="M70.664 82.1881C70.7419 82.2222 70.8175 82.2677 70.8886 82.3075C71.7686 82.8134 72.4576 84.0072 72.4576 85.0248C72.4576 85.1044 72.4514 85.184 72.4383 85.2579L73.6298 84.553C73.8123 84.4507 73.9243 84.1664 73.9243 83.8196C73.9243 83.0181 73.3354 82.0005 72.639 81.5969C72.3729 81.4434 72.125 81.4093 71.9431 81.4945C71.9289 81.5002 71.9141 81.5059 71.8999 81.5116C71.784 81.5684 71.2615 81.8527 70.664 82.1881ZM71.7987 86.2584C71.739 86.2584 71.6794 86.2357 71.6288 86.2016C71.5367 86.1334 71.4952 86.014 71.523 85.9003C71.5344 85.8605 71.5594 85.7923 71.7197 85.5535C71.8317 85.383 71.8891 85.2067 71.8891 85.0248C71.8891 84.2176 71.3007 83.2 70.6044 82.7964C70.2763 82.6088 70.0461 82.5406 69.921 82.5974C69.7823 82.6656 69.618 82.6031 69.5492 82.4723C69.4805 82.3359 69.5311 82.1654 69.6635 82.0915C71.008 81.3411 71.4844 81.0738 71.6936 80.9886C72.05 80.8123 72.4872 80.8522 72.9232 81.1023C73.8032 81.6139 74.4928 82.8077 74.4928 83.8196C74.4928 84.3881 74.2751 84.8486 73.9112 85.0476L71.9443 86.213C71.8994 86.2414 71.8493 86.2584 71.7987 86.2584Z" fill="#141414"></path>
</svg>
